<svg width="19" height="24" viewBox="0 0 19 24" fill="none" xmlns="http://www.w3.org/2000/svg">
<path fill-rule="evenodd" clip-rule="evenodd" d="M9.04725 8C10.7041 8 12.0472 6.65685 12.0472 5C12.0472 3.34315 10.7041 2 9.04725 2C7.39039 2 6.04725 3.34315 6.04725 5C6.04725 6.65685 7.39039 8 9.04725 8ZM9.04725 10C11.8087 10 14.0472 7.76142 14.0472 5C14.0472 2.23858 11.8087 0 9.04725 0C6.28582 0 4.04725 2.23858 4.04725 5C4.04725 7.76142 6.28582 10 9.04725 10Z" fill="#777777"/>
<path fill-rule="evenodd" clip-rule="evenodd" d="M2.16683 14.6481C3.55929 12.6501 5.77422 11 9.04725 11C12.3203 11 14.5352 12.6501 15.9277 14.6481C17.2952 16.6104 17.8976 18.9333 18.0429 20.4936L18.1003 21.1096L17.5747 21.436C10.0968 26.0791 3.08387 23.3874 0.442719 21.383L0 21.047L0.0515582 20.4936C0.196938 18.9333 0.799327 16.6104 2.16683 14.6481ZM2.11507 20.1127C4.52263 21.663 10.0034 23.463 15.9714 20.0632C15.7645 18.8042 15.2467 17.169 14.2868 15.7917C13.186 14.212 11.5342 13 9.04725 13C6.56027 13 4.90853 14.212 3.80766 15.7917C2.83516 17.1871 2.31649 18.8473 2.11507 20.1127Z" fill="#777777"/>
</svg>
