<svg width="24" height="24" viewBox="0 0 24 24" fill="none" xmlns="http://www.w3.org/2000/svg">
<path fill-rule="evenodd" clip-rule="evenodd" d="M9.61764 17.2353C13.8247 17.2353 17.2353 13.8247 17.2353 9.61764C17.2353 5.41053 13.8247 2 9.61764 2C5.41053 2 2 5.41053 2 9.61764C2 13.8247 5.41053 17.2353 9.61764 17.2353ZM9.61764 19.2353C14.9293 19.2353 19.2353 14.9293 19.2353 9.61764C19.2353 4.30596 14.9293 0 9.61764 0C4.30596 0 0 4.30596 0 9.61764C0 14.9293 4.30596 19.2353 9.61764 19.2353Z" fill="#777777"/>
<path d="M15.4746 15.5342C15.8821 15.1267 16.5428 15.1267 16.9503 15.5342L23.2621 21.8461C23.6697 22.2536 23.6697 22.9143 23.2621 23.3218C22.8546 23.7293 22.194 23.7293 21.7864 23.3218L15.4746 17.0099C15.0671 16.6024 15.0671 15.9417 15.4746 15.5342Z" fill="#777777"/>
</svg>
