<svg width="21" height="24" viewBox="0 0 21 24" fill="none" xmlns="http://www.w3.org/2000/svg">
<path fill-rule="evenodd" clip-rule="evenodd" d="M1.71367 7.19118C1.77142 6.66183 2.21849 6.26087 2.75099 6.26087H18.1186C18.6511 6.26087 19.0982 6.66183 19.1559 7.19118L20.8634 22.8434C20.8956 23.1381 20.8008 23.4325 20.6029 23.6532C20.405 23.8739 20.1225 24 19.8261 24H1.04348C0.747036 24 0.464581 23.8739 0.266653 23.6532C0.0687258 23.4325 -0.0259898 23.1381 0.00615919 22.8434L1.71367 7.19118ZM3.68683 8.34783L2.20699 21.913H18.6626L17.1827 8.34783H3.68683Z" fill="#777777"/>
<path fill-rule="evenodd" clip-rule="evenodd" d="M8.79103 2.8662C8.46769 3.33774 8.34783 3.93964 8.34783 4.33043V10.4348C8.34783 11.0111 7.88065 11.4783 7.30435 11.4783C6.72806 11.4783 6.26087 11.0111 6.26087 10.4348V4.33043C6.26087 3.62557 6.45406 2.584 7.06985 1.68597C7.7236 0.732589 8.82057 0 10.4348 0C12.049 0 13.146 0.732589 13.7997 1.68597C14.4155 2.584 14.6087 3.62557 14.6087 4.33043V10.4348C14.6087 11.0111 14.1415 11.4783 13.5652 11.4783C12.9889 11.4783 12.5217 11.0111 12.5217 10.4348V4.33043C12.5217 3.93964 12.4019 3.33774 12.0785 2.8662C11.7932 2.45002 11.3249 2.08696 10.4348 2.08696C9.54466 2.08696 9.07641 2.45002 8.79103 2.8662Z" fill="#777777"/>
</svg>
