<svg width="18" height="18" viewBox="0 0 18 18" fill="none" xmlns="http://www.w3.org/2000/svg">
<path d="M6.37742 2.88059H3.92968C2.95049 2.88059 2.4609 2.88059 2.0869 3.07115C1.75792 3.23878 1.49045 3.50625 1.32283 3.83523C1.13226 4.20923 1.13226 4.69882 1.13226 5.67801V14.0703C1.13226 15.0495 1.13226 15.5391 1.32283 15.9131C1.49045 16.242 1.75792 16.5095 2.0869 16.6771C2.4609 16.8677 2.95049 16.8677 3.92968 16.8677H14.0703C15.0495 16.8677 15.5391 16.8677 15.9131 16.6771C16.2421 16.5095 16.5096 16.242 16.6772 15.9131C16.8677 15.5391 16.8677 15.0495 16.8677 14.0703V5.67801C16.8677 4.69882 16.8677 4.20923 16.6772 3.83523C16.5096 3.50625 16.2421 3.23878 15.9131 3.07115C15.5391 2.88059 15.0495 2.88059 14.0703 2.88059H11.6226H6.37742Z" fill="white"/>
<path d="M11.6226 8.99994L8.43489 12.1876C8.26419 12.3583 7.98743 12.3583 7.81674 12.1876L6.37742 10.7483M1.13226 6.37736H16.8677M6.37742 2.88059H3.92968C2.95049 2.88059 2.4609 2.88059 2.0869 3.07115C1.75792 3.23878 1.49045 3.50625 1.32283 3.83523C1.13226 4.20923 1.13226 4.69882 1.13226 5.67801V14.0703C1.13226 15.0495 1.13226 15.5391 1.32283 15.9131C1.49045 16.242 1.75792 16.5095 2.0869 16.6771C2.4609 16.8677 2.95049 16.8677 3.92968 16.8677H14.0703C15.0495 16.8677 15.5391 16.8677 15.9131 16.6771C16.2421 16.5095 16.5096 16.242 16.6772 15.9131C16.8677 15.5391 16.8677 15.0495 16.8677 14.0703V5.67801C16.8677 4.69882 16.8677 4.20923 16.6772 3.83523C16.5096 3.50625 16.2421 3.23878 15.9131 3.07115C15.5391 2.88059 15.0495 2.88059 14.0703 2.88059H11.6226M6.37742 2.88059H11.6226M6.37742 2.88059V2.44349C6.37742 1.71929 5.79034 1.1322 5.06613 1.1322C4.34193 1.1322 3.75484 1.71929 3.75484 2.44349V2.88059M11.6226 2.88059V2.44349C11.6226 1.71929 12.2097 1.1322 12.9339 1.1322C13.6581 1.1322 14.2452 1.71929 14.2452 2.44349V2.88059" stroke="#2F59ED" stroke-width="1.74839" stroke-linecap="round"/>
</svg>
