<svg width="19" height="18" viewBox="0 0 19 18" fill="none" xmlns="http://www.w3.org/2000/svg">
<path d="M6.87742 1.1322L9.43819 3.69297C9.47233 3.72711 9.52768 3.72711 9.56182 3.69297L12.1226 1.1322M6.00323 12.4967L8.28852 10.0482C8.31557 10.0192 8.35875 10.0121 8.39371 10.0308L10.5993 11.2123C10.6374 11.2328 10.6847 11.2222 10.7106 11.1876L12.9968 8.12575M4.42968 3.75478H14.5703C15.5495 3.75478 16.0391 3.75478 16.4131 3.94535C16.7421 4.11297 17.0096 4.38044 17.1772 4.70942C17.3677 5.08342 17.3677 5.57301 17.3677 6.5522V14.0703C17.3677 15.0495 17.3677 15.5391 17.1772 15.9131C17.0096 16.242 16.7421 16.5095 16.4131 16.6771C16.0391 16.8677 15.5495 16.8677 14.5703 16.8677H4.42968C3.45049 16.8677 2.9609 16.8677 2.5869 16.6771C2.25792 16.5095 1.99045 16.242 1.82283 15.9131C1.63226 15.5391 1.63226 15.0495 1.63226 14.0703V6.5522C1.63226 5.57301 1.63226 5.08342 1.82283 4.70942C1.99045 4.38044 2.25792 4.11297 2.5869 3.94535C2.9609 3.75478 3.45049 3.75478 4.42968 3.75478Z" stroke="#2F59ED" stroke-width="1.74839" stroke-linecap="round"/>
</svg>
