<svg width="18" height="18" viewBox="0 0 18 18" fill="none" xmlns="http://www.w3.org/2000/svg">
<path d="M6.62742 4.192C6.74041 4.19192 6.85691 4.19192 6.9771 4.19192H11.5229C11.6431 4.19192 11.7596 4.19192 11.8726 4.192M6.62742 4.192C4.89941 4.19335 3.99363 4.21531 3.29154 4.57304C2.63357 4.90829 2.09864 5.44323 1.76339 6.10119C1.38226 6.84919 1.38226 7.82838 1.38226 9.78676V10.8358C1.38226 12.7942 1.38226 13.7734 1.76339 14.5214C2.09864 15.1793 2.63357 15.7143 3.29154 16.0495C4.03954 16.4306 5.01872 16.4306 6.9771 16.4306H11.5229C13.4813 16.4306 14.4605 16.4306 15.2085 16.0495C15.8664 15.7143 16.4014 15.1793 16.7366 14.5214C17.1177 13.7734 17.1177 12.7942 17.1177 10.8358V9.78675C17.1177 7.82838 17.1177 6.84919 16.7366 6.10119C16.4014 5.44323 15.8664 4.90829 15.2085 4.57304C14.5064 4.21531 13.6006 4.19335 11.8726 4.192M6.62742 4.192V3.31772C6.62742 2.35212 7.4102 1.56934 8.37581 1.56934H10.1242C11.0898 1.56934 11.8726 2.35212 11.8726 3.31772V4.192M11.8726 10.3113C11.8726 11.7597 10.6984 12.9339 9.25001 12.9339C7.80159 12.9339 6.62742 11.7597 6.62742 10.3113C6.62742 8.86286 7.80159 7.68869 9.25001 7.68869C10.6984 7.68869 11.8726 8.86286 11.8726 10.3113Z" stroke="#2F59ED" stroke-width="1.74839" stroke-linecap="round"/>
</svg>
