<svg width="19" height="14" viewBox="0 0 19 14" fill="none" xmlns="http://www.w3.org/2000/svg">
<path d="M1.80281 8.02431C1.50421 7.37469 1.50421 6.62525 1.80281 5.97563C3.185 2.96856 6.22368 0.880615 9.75003 0.880615C13.2764 0.880615 16.3151 2.96856 17.6973 5.97563C17.9959 6.62525 17.9959 7.37469 17.6973 8.02432C16.3151 11.0314 13.2764 13.1193 9.75003 13.1193C6.22368 13.1193 3.185 11.0314 1.80281 8.02431Z" stroke="#2F59ED" stroke-width="1.74839"/>
<path d="M12.3726 6.99997C12.3726 8.44838 11.1984 9.62255 9.75003 9.62255C8.30162 9.62255 7.12745 8.44838 7.12745 6.99997C7.12745 5.55156 8.30162 4.37739 9.75003 4.37739C11.1984 4.37739 12.3726 5.55156 12.3726 6.99997Z" stroke="#2F59ED" stroke-width="1.74839"/>
</svg>
